Coordinates
version=1
nRows=10
nColumns=40
inDegrees=yes

Units are S.I. units (second, meters, Newtons, ...)
If the header above contains a line with 'inDegrees', this indicates whether rotational values are in degrees (yes) or radians (no).

endheader
time	pelvis_tilt	pelvis_list	pelvis_rotation	pelvis_tx	pelvis_ty	pelvis_tz	hip_flexion_r	hip_adduction_r	hip_rotation_r	knee_angle_r	knee_angle_r_beta	ankle_angle_r	subtalar_angle_r	mtp_angle_r	hip_flexion_l	hip_adduction_l	hip_rotation_l	knee_angle_l	knee_angle_l_beta	ankle_angle_l	subtalar_angle_l	mtp_angle_l	lumbar_extension	lumbar_bending	lumbar_rotation	arm_flex_r	arm_add_r	arm_rot_r	elbow_flex_r	pro_sup_r	wrist_flex_r	wrist_dev_r	arm_flex_l	arm_add_l	arm_rot_l	elbow_flex_l	pro_sup_l	wrist_flex_l	wrist_dev_l
      3.27500000	    -47.60738045	     -3.36742068	      9.61571015	      0.04201472	      0.53698069	     -1.19495557	    121.67511190	    -48.27580468	      8.31739106	     91.97027850	      1.60518417	     14.68828476	     -5.96742436	      0.00000000	    120.08295291	    -30.80086780	     -1.68721905	     86.02814134	      1.50147432	      8.87014546	     10.47744603	      0.00000000	      0.00000000	      0.00000000	      0.00000000	     44.98815837	    -15.00249155	     44.98815837	     75.00017599	     45.00000026	      0.00000000	      0.00000000	     44.98815837	    -15.00249155	     44.98815837	     75.00017599	     45.00000026	      0.00000000	      0.00000000
      3.28000000	    -47.58713575	     -3.38644915	      9.57527310	      0.04212892	      0.53535354	     -1.19489637	    121.92417028	    -48.27656474	      8.50652135	     92.25393918	      1.61013499	     14.79824536	     -5.89971794	      0.00000000	    120.35050911	    -30.85961379	     -1.47478833	     86.32791920	      1.50670643	      8.99675516	     10.44741486	      0.00000000	      0.00000000	      0.00000000	      0.00000000	     44.98867682	    -15.00231683	     44.98867682	     75.00017597	     45.00000026	      0.00000000	      0.00000000	     44.98867682	    -15.00231683	     44.98867682	     75.00017597	     45.00000026	      0.00000000	      0.00000000
      3.28500000	    -47.56791190	     -3.42207663	      9.52091573	      0.04222206	      0.53382422	     -1.19485357	    122.12334674	    -48.26499076	      8.64192249	     92.51029802	      1.61460929	     14.90384736	     -5.88720343	      0.00000000	    120.61978546	    -30.90544297	     -1.23744382	     86.60807297	      1.51159603	      9.12106898	     10.43731840	      0.00000000	      0.00000000	      0.00000000	      0.00000000	     44.98914870	    -15.00216215	     44.98914870	     75.00017595	     45.00000026	      0.00000000	      0.00000000	     44.98914870	    -15.00216215	     44.98914870	     75.00017595	     45.00000026	      0.00000000	      0.00000000
      3.29000000	    -47.54730154	     -3.48257974	      9.49537885	      0.04233384	      0.53227167	     -1.19488248	    122.32542626	    -48.30406211	      8.77157868	     92.77605965	      1.61924771	     14.98663297	     -5.84159862	      0.00000000	    120.90306975	    -30.91379426	     -0.99173267	     86.88413034	      1.51641414	      9.21665694	     10.43767522	      0.00000000	      0.00000000	      0.00000000	      0.00000000	     44.98959052	    -15.00202120	     44.98959052	     75.00017594	     45.00000026	      0.00000000	      0.00000000	     44.98959052	    -15.00202120	     44.98959052	     75.00017594	     45.00000026	      0.00000000	      0.00000000
      3.29500000	    -47.51396033	     -3.43237418	      9.47031098	      0.04244922	      0.53072260	     -1.19481877	    122.62980172	    -48.27648796	      9.07470200	     93.04662932	      1.62397004	     15.09728120	     -5.73582676	      0.00000000	    121.07590074	    -30.97746382	     -0.86835227	     87.16590324	      1.52133201	      9.37515312	     10.41518440	      0.00000000	      0.00000000	      0.00000000	      0.00000000	     44.99004848	    -15.00187869	     44.99004848	     75.00017593	     45.00000026	      0.00000000	      0.00000000	     44.99004848	    -15.00187869	     44.99004848	     75.00017593	     45.00000026	      0.00000000	      0.00000000
      3.30000000	    -47.50314039	     -3.44799341	      9.44778686	      0.04253019	      0.52911762	     -1.19484460	    122.90100410	    -48.29150331	      9.28587260	     93.31170962	      1.62859656	     15.17871103	     -5.70109004	      0.00000000	    121.33058753	    -30.99059574	     -0.66614290	     87.44629076	      1.52622569	      9.48987151	     10.38172562	      0.00000000	      0.00000000	      0.00000000	      0.00000000	     44.99050347	    -15.00174114	     44.99050347	     75.00017592	     45.00000026	      0.00000000	      0.00000000	     44.99050347	    -15.00174114	     44.99050347	     75.00017592	     45.00000026	      0.00000000	      0.00000000
      3.30500000	    -47.01739226	     -3.73290007	      9.13137633	      0.04349214	      0.52867418	     -1.19443796	    121.89424924	    -48.24467539	      8.54246905	     93.52471351	      1.63231418	     15.56952492	     -5.43400526	      0.00000000	    121.44438270	    -31.30027450	      0.05751648	     87.81489088	      1.53265898	      9.84632953	     10.89645133	      0.00000000	      0.00000000	      0.00000000	      0.00000000	     44.99076202	    -15.00166530	     44.99076202	     75.00017591	     45.00000026	      0.00000000	      0.00000000	     44.99076202	    -15.00166530	     44.99076202	     75.00017591	     45.00000026	      0.00000000	      0.00000000
      3.31000000	    -47.43140465	     -3.43767351	      9.35816986	      0.04278372	      0.52601214	     -1.19476095	    123.37978652	    -48.24616472	      9.71076069	     93.84172289	      1.63784704	     15.36068047	     -5.58778296	      0.00000000	    121.77810531	    -31.09074059	     -0.26819079	     88.01778481	      1.53620015	      9.74562984	     10.34140828	      0.00000000	      0.00000000	      0.00000000	      0.00000000	     44.99101449	    -15.00159207	     44.99101449	     75.00017591	     45.00000026	      0.00000000	      0.00000000	     44.99101449	    -15.00159207	     44.99101449	     75.00017591	     45.00000026	      0.00000000	      0.00000000
      3.31500000	    -47.37098071	     -3.45313785	      9.33504334	      0.04294534	      0.52445443	     -1.19480088	    123.59216233	    -48.26565871	      9.91734277	     94.11504348	      1.64261738	     15.46810527	     -5.49979883	      0.00000000	    121.99372509	    -31.10497960	     -0.05307685	     88.31402658	      1.54137054	      9.87582558	     10.31991687	      0.00000000	      0.00000000	      0.00000000	      0.00000000	     44.99129461	    -15.00151240	     44.99129461	     75.00017590	     45.00000026	      0.00000000	      0.00000000	     44.99129461	    -15.00151240	     44.99129461	     75.00017590	     45.00000026	      0.00000000	      0.00000000
      3.32000000	    -47.33607527	     -3.43138435	      9.31475466	      0.04309270	      0.52290206	     -1.19480663	    123.85866668	    -48.25476455	     10.17661517	     94.37722771	      1.64719336	     15.57068262	     -5.44436860	      0.00000000	    122.19047978	    -31.13212924	      0.11835994	     88.59522987	      1.54627846	     10.01934823	     10.30235798	      0.00000000	      0.00000000	      0.00000000	      0.00000000	     44.99156482	    -15.00143700	     44.99156482	     75.00017590	     45.00000026	      0.00000000	      0.00000000	     44.99156482	    -15.00143700	     44.99156482	     75.00017590	     45.00000026	      0.00000000	      0.00000000
